<?xml version="1.0" encoding="utf-8"?>
<!-- Generator: Adobe Illustrator 23.0.1, SVG Export Plug-In . SVG Version: 6.00 Build 0)  -->
<svg version="1.1" id="Layer_1" xmlns="http://www.w3.org/2000/svg" xmlns:xlink="http://www.w3.org/1999/xlink" x="0px" y="0px"
	 viewBox="0 0 283.46 283.46" style="enable-background:new 0 0 283.46 283.46;" xml:space="preserve">
<style type="text/css">
	.st0{display:none;}
</style>
<g>
	<path class="st0" d="M283.46,141.79c-0.03,78.34-63.49,141.72-141.85,141.66C63.28,283.39-0.06,219.93,0,141.55
		C0.06,63.23,63.6-0.13,141.95-0.02C220.22,0.09,283.49,63.5,283.46,141.79z M125.53,163.02c-2.18-0.09-4.78-0.86-6.87-0.13
		c-3.36,1.17-5.84,0.14-8.43-1.56c-0.16-0.1-0.34-0.18-0.51-0.27c-7.65-3.89-15.54-7.32-24.26-7.13
		c-5.48,0.11-11.02,0.97-16.37,2.21c-10.06,2.33-20.01,3.88-30.36,1.66c-4.34-0.93-8.96-0.9-13.43-0.74
		c-3.7,0.13-6.4,2.37-7.59,6.01c-1.13,3.45-1.38,7.04-0.48,10.54c17.37,67.93,86.93,110.97,157.69,92.3
		c65.36-17.25,106.3-83.2,92.86-149.4C254.24,49.78,191.46,4.92,124.41,14.36c-35.96,5.07-64.8,22.53-86.5,51.63
		c-8.8,11.8-15.78,24.45-16.64,39.67c-0.55,9.68,0.26,19.11,4.86,27.81c5.07,9.61,12.71,15.94,23.84,17.22
		c5.7,0.66,11.32-0.32,16.83-1.57c12.52-2.85,24.84-2.59,36.99,1.8C111.8,153.82,119.08,158,125.53,163.02z"/>
	<path d="M150.35,155.86c6.95-5.24,13.64-10.51,20.58-15.43c5.75-4.06,12.05-7.16,19.17-7.98c2.74-0.32,5.55-0.05,8.84-0.05
		c-4.4-1.73-8.44-1.95-12.56-1.18c-4.88,0.91-9.25,3.07-13.55,5.46c-2.38,1.33-4.78,2.68-7.32,3.65c-3.91,1.48-6.46,0.44-8.91-2.93
		c-0.49-0.68-1.6-1.28-2.43-1.28c-3.17,0.01-3.34,0-4.52-2.86c-3.61-0.32-4.31-1.06-4.88-4.77c-0.09-0.57-0.7-1.3-1.24-1.52
		c-5.82-2.27-6.3-3.23-3.62-8.84c1.39-2.89,1.31-5.52-0.12-8.37c-1.93-3.86-3.74-7.79-5.4-11.77c-3.37-8.11-3.38-16.33-0.33-24.55
		c4.77-12.84,12.7-22.84,25.69-28.12c9.49-3.86,19.16-3.33,28.8-0.51c14.4,4.2,25.38,12.42,30.8,26.88
		c3.8,10.16,3.7,20.54,1.11,30.97c-1.06,4.25-2.64,8.41-3.25,12.71c-1.61,11.28-0.35,22.32,4.1,32.89
		c2.68,6.38,3.09,13.04,1.85,19.68c-5.39,28.68-19.19,52.37-42.39,70.36c-5.45,4.22-11.18,7.98-17.58,10.6
		c-13.98,5.72-26.16,2.38-35.33-9.66c-5.02-6.59-8.07-14.13-10.03-22.07c-1.59-6.4-2.62-12.95-3.95-19.42
		c-0.29-1.42,0.12-2.24,1.32-3.15c2.82-2.12,5.44-4.5,8.15-6.77c-0.12-0.14-0.23-0.28-0.35-0.42c-2.53,1.71-4.96,3.6-7.62,5.09
		c-4.71,2.63-9.5,5.13-14.37,7.45c-3.11,1.48-5.52,3.54-7.3,6.45c-1.16,1.9-2.3,3.83-3.7,5.54c-2.89,3.53-6.42,3.87-10.05,1.1
		c-1.11-0.85-2.15-1.79-3.15-2.76c-3.59-3.48-7.67-6.23-12.02-8.69c-1.77-1-3.23-2.59-4.7-4.05c-1.52-1.52-2.9-3.19-4.29-4.83
		c-0.61-0.72-1.5-1.52-1.54-2.32c-0.07-1.28,0.18-2.76,0.83-3.85c0.73-1.22,2.14-0.97,3.46-0.56c6.35,2.01,12.71,3.96,19.08,5.91
		c0.42,0.13,0.87,0.17,1.32,0.2c9.63,0.8,7.26,1.05,13.04-5.01c4.69-4.92,9.28-9.96,14.25-14.59c2.46-2.29,5.54-4.06,8.6-5.55
		c5.09-2.47,10-1.72,14.44,1.87c5.15,4.16,8.77,9.52,12,15.18c5.19,9.09,9.18,18.69,12.09,28.75c0.1,0.35,0.24,0.68,0.52,0.97
		c-0.52-10.58-4.71-20.03-9.15-29.36c12.36,0.31,21.88-6.27,31.51-12.5c2.77-1.79,5.3-3.95,7.93-5.96c0.44-0.34,0.79-0.79,1.19-1.19
		c-0.13-0.16-0.26-0.32-0.4-0.49c-0.53,0.36-1.07,0.71-1.59,1.09c-7.89,5.85-16.09,11.14-25.5,14.29c-0.96,0.32-1.95,0.56-2.93,0.83
		c-5.21,1.46-9.88,0.46-13.22-3.87c-3.94-5.12-7.57-10.49-11.13-15.89c-2.94-4.45-5.46-9.18-8.39-13.63
		c-1.46-2.21-3.4-4.11-5.16-6.11c-2.54-2.88-5.73-4.54-9.57-5.02c-1.1-0.14-2.33-0.48-3.17-1.14c-0.65-0.51-1.17-1.77-1.01-2.53
		c0.14-0.63,1.36-1.03,2.12-1.5c0.14-0.08,0.37,0,0.56,0c0.97,0,2.11,0.93,2.82-0.52c-0.9-0.43-1.79-0.88-2.7-1.28
		c-0.58-0.25-1.45-0.22-1.73-0.64c-0.51-0.75-1.15-1.99-0.85-2.55c0.38-0.73,1.62-1.29,2.53-1.36c0.76-0.06,1.55,0.82,2.38,1.06
		c0.62,0.17,1.34-0.03,2.02-0.06c-0.36-0.64-0.6-1.42-1.12-1.89c-0.48-0.44-1.27-0.55-1.9-0.84c-1.42-0.65-2.13-1.76-1.47-3.23
		c0.64-1.43,1.99-1.83,3.38-1.19c1.14,0.52,2.08,1.47,3.22,1.99c0.6,0.28,1.43,0.06,2.16,0.06c-0.18-0.72-0.23-1.52-0.59-2.14
		c-0.3-0.51-1.02-0.75-1.45-1.2c-0.83-0.88-1.53-2.1-0.54-3.02c0.74-0.69,2.08-0.94,3.18-0.98c0.6-0.02,1.31,0.71,1.82,1.25
		c2.12,2.19,4.16,4.47,6.3,6.65c0.48,0.49,1.25,0.71,1.88,1.05c0.27-0.61,0.57-1.21,0.8-1.83c0.13-0.35,0.02-0.85,0.23-1.1
		c0.59-0.72,1.27-1.84,1.96-1.88c0.74-0.05,2.03,0.83,2.23,1.54c0.51,1.8,0.62,3.73,0.73,5.62c0.06,1.07-0.14,2.16-0.32,3.22
		c-0.46,2.66,0.06,5.13,1.73,7.2c5.24,6.46,10.56,12.86,15.87,19.27C149.18,154.7,149.91,155.39,150.35,155.86z"/>
	<path d="M111.53,197.09c0.66,4.18,1.22,8.19,1.94,12.18c0.49,2.68,1.04,5.38,1.84,7.98c1.19,3.86,1.14,7.78,0.87,11.71
		c-0.31,4.55-3.14,6.84-7.7,6.39c-1.89-0.18-3.76-0.71-5.66-0.81c-4.24-0.22-8.49-0.21-12.73-0.43c-1.88-0.1-3.75-0.43-5.59-0.83
		c-1.97-0.43-3.9-1.06-5.85-1.63c-0.79-0.23-1.84-0.31-2.27-0.85c-0.8-1.02-1.61-2.29-1.74-3.53c-0.16-1.52,1.2-2.18,2.62-2.53
		c4.81-1.19,9.69-2.16,14.37-3.73c3.51-1.18,6.77-3.14,10.13-4.78c1.36-0.66,2-1.79,2.22-3.3c0.54-3.77,1.25-7.52,1.75-11.3
		c0.17-1.23,0.64-1.92,1.77-2.41C108.83,198.64,110.08,197.86,111.53,197.09z"/>
</g>
</svg>
