<?xml version="1.0" encoding="utf-8"?>
<!-- Generator: Adobe Illustrator 23.0.1, SVG Export Plug-In . SVG Version: 6.00 Build 0)  -->
<svg version="1.1" id="Layer_1" xmlns="http://www.w3.org/2000/svg" xmlns:xlink="http://www.w3.org/1999/xlink" x="0px" y="0px"
	 viewBox="0 0 283.46 283.46" style="enable-background:new 0 0 283.46 283.46;" xml:space="preserve">
<g>
	<path d="M16.31,107.42c5.59-0.11,11.27-2.06,16.72,0.9c0.31,0.17,0.97-0.39,1.49-0.53c13.05-3.49,25.92-4.31,37.65,2.37
		c0-9.45,0.24-19.03-0.11-28.58c-0.14-3.96,0.61-5.85,4.9-6.13c5.77-0.38,11.5-1.34,17.24-2.08c1.48-0.19,3.8-0.75,4.05,0.74
		c1.09,6.53,4.58,2.3,6.93,1.61c6.87-2.02,13.74-2.99,20.96-3.66c16.47-1.53,30.82,2.84,44.51,11.05c1.87,1.12,3.14,0.31,4.64-0.45
		c5.83-2.94,11.74-5.73,17.48-8.84c2.67-1.45,4.37-1.02,6.14,1.31c2.6,3.42,5.33,6.77,8.22,9.95c2.23,2.45,2.2,4.43-0.21,6.69
		c-3.84,3.59-6.96,7.79-10,12.08c-1.26,1.78-0.53,3.32,0.84,3.14c3.64-0.49,6.98,1.46,10.77,0.38c11.83-3.38,23.69-3.85,34.8,2.48
		c3.33,1.9,5.79,2.01,9.16,0.16c8.62-4.75,8.71-4.57,15.56,2.68c0.27,0.29,0.89,0.25,1.35,0.36c0,1.12,0,2.25,0,3.37
		c-7.38,4.89-10.71,12.56-13.3,20.42c-5.08,15.38-4.29,30.99-0.17,46.44c1.22,4.59,0.2,5.74-4.48,5.64
		c-13.11-0.28-26.24-0.3-39.35,0.01c-4.63,0.11-5.64-1.65-5.79-5.84c-0.66-17.98,3.96-33.99,17.22-47.52
		c-5.09-1.18-9.67-2.39-14.31-3.27c-2.49-0.47-4.45,0.7-4.97,3.38c-1.45,7.54-7.31,3.5-11.15,3.97c-4.54,0.55-3.24-3.66-3.41-6.12
		c-0.27-3.86-0.07-7.76-0.07-12.33c-4.14,4.18-4.55,9.1-5.56,13.63c-5.54,24.64-3.48,49.07,2.78,73.26
		c1.21,4.69,0.49,6.44-4.72,6.41c-24.55-0.17-49.1-0.15-73.65,0.03c-4.03,0.03-5.47-1.07-5.87-5.22
		c-3.21-32.66,5.07-61.41,28.9-85.83c-8.89-1.73-17.3-3.59-25.78-4.91c-4.45-0.69-7.26,1.8-7.19,6.45c0.06,4.38-1.44,6.84-6.11,5.95
		c-5.4-1.03-7.42,1.55-8.84,6.45c-4.43,15.2-3.79,30.32-0.02,45.41c1.15,4.59,0.71,6.24-4.55,6.1c-13.3-0.34-26.61-0.22-39.92-0.04
		c-3.68,0.05-4.69-1.13-4.88-4.79c-0.96-18.39,3.52-34.8,17.13-48.53c-4.91-1.15-9.33-2.33-13.82-3.17
		c-2.58-0.48-5.39,0.15-5.26,3.38c0.16,4.06-2.07,4.17-4.94,4.05c-1.68-0.07-3.39-0.17-5.06,0.02c-3.78,0.42-4.82-1.34-4.9-4.89
		c-0.06-2.4,1.32-5.18-1.03-7.31c0-1.12,0-2.25,0-3.37c1.58-1.5,1.25-3,0-4.5C16.31,115.67,16.31,111.55,16.31,107.42z
		 M80.13,131.21c-1.3-0.03-2.61-0.06-3.91-0.09c-3.78-3.13-1.8-7.63-2.72-11.43c-0.01-0.75-0.02-1.51-0.03-2.26
		c0.73-2.77-1.36-3.54-3.18-4.5c-11.63-6.09-23.48-6.98-35.6-1.49c-2.22,1.01-4.27,3.01-6.29-1.02c-1.02-2.04-4.49-0.73-6.78-0.31
		c-2.71,0.5-1.85,2.89-1.78,4.6c0.24,5.8,0.57,11.59,1,17.38c0.12,1.63-0.99,4.28,2,4.33c2.27,0.03,5.16,1.53,6.36-2.47
		c1.37-4.59,5.04-5.46,9.47-4.62c5.47,1.04,10.79,3.24,16.53,2.39c1.22-0.18,2.67-1.34,3.51,0.23c1.04,1.93-0.99,2.5-2.04,3.39
		c-14.4,12.18-19.94,27.96-19.19,46.43c0.13,3.14,1.09,4.2,4.26,4.16c11.62-0.16,23.23-0.15,34.85-0.01
		c3.45,0.04,3.91-0.9,3.21-4.26c-3.27-15.76-4.06-31.51,1.31-47.08C81.48,133.55,82.88,131.62,80.13,131.21z M144.39,208.85
		c10.68,0,21.36-0.1,32.03,0.06c3.46,0.05,4.67-0.73,3.8-4.44c-4.05-17.22-5.75-34.63-4.33-52.34c1.82-22.78,8.5-43.59,23.91-60.98
		c1.77-1.99,2.84-3.62,0.27-5.4c-2.63-1.83-2.59-7.95-8.16-5.12c-5.33,2.71-10.78,5.22-16.01,8.11c-2.82,1.56-4.93,1.34-7.63-0.43
		c-10.69-6.99-22.45-10.86-35.29-11.46c-11.9-0.55-22.99,2.1-33.48,7.61c-2.39,1.26-5.45,2.74-5.64-1.73
		c-0.17-3.92-2.28-3.6-4.79-3.29c-2.23,0.27-4.44,0.94-6.66,0.91c-3.66-0.04-4.8,1.34-4.56,5.06c0.7,11.21,1.35,22.44,1.34,33.67
		c0,5.2,1.55,6.7,6.62,6.41c4.1-0.23,7.31,0.13,8.25-5.39c0.8-4.65,4.82-6.81,9.59-7.17c4.18-0.32,8.16,0.62,12.17,1.6
		c8.15,1.99,16.29,4.43,24.82,2.01c1.56-0.44,3.12-0.09,3.74,1.6c0.62,1.66-0.41,2.88-1.68,3.8c-4.4,3.2-8.53,6.66-12.16,10.77
		c-18.16,20.6-24.14,45.04-23.01,71.82c0.15,3.45,1.53,4.42,4.82,4.37C123.03,208.75,133.71,208.85,144.39,208.85z M231.16,185.89
		c5.62,0,11.25-0.17,16.86,0.06c3.68,0.15,4.9-0.65,4.08-4.72c-4.43-21.89-4.25-43.18,9.63-62.28c2.07-2.84,0.24-4.83-1.21-6.99
		c-1.88-2.8-3.58-0.34-5.29,0.18c-3.5,1.06-6.15,4.8-10.76,2c-12.53-7.6-25.62-8.68-39.03-2.1c-1.23,0.6-2.79,2-3.72-0.25
		c-1.64-3.98-4.88-2.12-7.21-1.68c-3.12,0.59-2.55,3.67-2.44,6.05c0.25,5.42,0.56,10.84,0.91,16.26c0.11,1.71-0.66,4.2,2.36,4.06
		c2.15-0.1,4.85,1.35,6.05-2.21c1.71-5.09,5.58-5.81,10.42-4.74c5.07,1.12,10.07,3.01,15.43,2.29c1.32-0.18,2.96-1.74,3.8,0.5
		c0.62,1.64-1.07,2.14-2.02,2.94c-14.55,12.31-20.13,28.28-19.33,46.95c0.13,3.03,1.25,3.81,4.05,3.73
		C219.54,185.78,225.35,185.89,231.16,185.89z"/>
	<path d="M16.31,119.8c1.25,1.5,1.58,3,0,4.5C16.31,122.8,16.31,121.3,16.31,119.8z"/>
	<path d="M231.16,185.89c-5.81,0-11.62-0.11-17.42,0.05c-2.8,0.08-3.92-0.7-4.05-3.73c-0.79-18.67,4.78-34.63,19.33-46.95
		c0.95-0.8,2.64-1.3,2.02-2.94c-0.84-2.23-2.48-0.68-3.8-0.5c-5.36,0.73-10.36-1.16-15.43-2.29c-4.84-1.07-8.71-0.36-10.42,4.74
		c-1.2,3.56-3.9,2.11-6.05,2.21c-3.02,0.14-2.25-2.35-2.36-4.06c-0.35-5.42-0.66-10.84-0.91-16.26c-0.11-2.39-0.68-5.47,2.44-6.05
		c2.32-0.44,5.57-2.3,7.21,1.68c0.93,2.25,2.48,0.86,3.72,0.25c13.41-6.58,26.5-5.5,39.03,2.1c4.61,2.8,7.26-0.94,10.76-2
		c1.72-0.52,3.42-2.98,5.29-0.18c1.45,2.16,3.28,4.14,1.21,6.99c-13.88,19.09-14.06,40.38-9.63,62.28c0.83,4.08-0.4,4.87-4.08,4.72
		C242.4,185.72,236.78,185.89,231.16,185.89z M243.61,161.11c0.6,4.95,1.42,11.79,2.27,18.63c0.2,1.63,0.33,4.01,2.45,3.63
		c2.2-0.39,1.21-2.5,0.95-4.19c-2.43-16.19-3.11-32.28,3.04-47.94c0.43-1.08,1.42-2.67-0.32-3.39c-2-0.83-2.36,0.92-2.96,2.34
		C245.19,139.48,244.17,149.27,243.61,161.11z M228.66,110.55c-0.86-0.18-2.45-0.54-2.85,1.11c-0.42,1.7,1.2,2.11,2.49,2.31
		c5.06,0.79,9.67,2.68,14.01,5.36c1.08,0.67,2.46,1.51,3.28-0.25c0.6-1.28-0.47-2.04-1.46-2.65
		C239.48,113.55,234.57,111.38,228.66,110.55z"/>
	<path d="M73.5,119.69c0.93,3.81-1.06,8.31,2.72,11.43c-5.01,14.62-5.81,29.59-3.22,44.7c0.43,2.54-0.47,7.79,2.97,7.23
		c3.26-0.53,0.82-5.13,0.47-7.8c-1.96-14.98-1.95-29.74,3.7-44.05c2.75,0.4,1.35,2.34,0.98,3.39c-5.37,15.57-4.59,31.33-1.31,47.08
		c0.7,3.35,0.23,4.3-3.21,4.26c-11.62-0.14-23.24-0.15-34.85,0.01c-3.18,0.04-4.14-1.02-4.26-4.16
		c-0.75-18.47,4.8-34.26,19.19-46.43c1.05-0.89,3.08-1.46,2.04-3.39c-0.84-1.57-2.29-0.42-3.51-0.23
		c-5.74,0.85-11.06-1.34-16.53-2.39c-4.43-0.85-8.1,0.03-9.47,4.62c-1.2,3.99-4.09,2.5-6.36,2.47c-2.99-0.05-1.88-2.7-2-4.33
		c-0.43-5.79-0.76-11.58-1-17.38c-0.07-1.72-0.94-4.1,1.78-4.6c2.29-0.42,5.76-1.73,6.78,0.31c2.02,4.04,4.07,2.03,6.29,1.02
		c12.13-5.49,23.97-4.6,35.6,1.49c1.82,0.95,3.91,1.73,3.18,4.5c-4.16-2.87-8.7-5.06-13.59-6.23c-1.91-0.46-5.23-2.33-5.98,0.25
		c-0.95,3.28,2.88,2.2,4.68,2.91c2.41,0.96,4.83,1.92,7.31,2.67C68.47,117.82,70.26,120.86,73.5,119.69z"/>
	<path d="M73.5,119.69c-3.24,1.17-5.02-1.88-7.6-2.65c-2.48-0.75-4.9-1.71-7.31-2.67c-1.8-0.71-5.64,0.37-4.68-2.91
		c0.75-2.59,4.06-0.71,5.98-0.25c4.89,1.17,9.42,3.36,13.59,6.23C73.48,118.19,73.49,118.94,73.5,119.69z"/>
	<path d="M165.92,166.32c-0.09-19.41,2.43-36.27,8.9-52.44c0.78-1.94,1.46-4.41,3.95-3.94c3.66,0.69,2.53,3.43,1.59,5.71
		c-6.82,16.7-9.01,34.21-8.67,52.05c0.21,10.82,1.41,21.6,3.73,32.21c0.48,2.21,0.81,4.39-1.73,5.1c-3.18,0.89-3.76-1.96-4.12-4.05
		C167.44,188.81,165.64,176.63,165.92,166.32z"/>
	<path d="M138.21,80.84c11,1.79,20.3,5.41,28.85,10.95c1.5,0.97,2.84,2.24,1.82,4.12c-1.11,2.04-3.06,2.05-4.82,0.89
		c-7.89-5.2-16.44-8.6-25.83-9.91c-1.92-0.27-3.66-1.2-3.49-3.59C134.87,81.68,136.83,80.71,138.21,80.84z"/>
	<path d="M197.59,87.33c0.14,2.5-0.86,3.85-2.45,3.71c-2.67-0.23-4.15-2.39-4.75-4.75c-0.48-1.88,0.89-3.47,2.75-3.28
		C195.86,83.3,196.6,85.93,197.59,87.33z"/>
	<path d="M131.58,83.27c-0.48,1.48-1.1,2.8-2.98,2.7c-1.78-0.1-2.77-1.33-2.73-2.87c0.04-1.57,1.11-2.64,2.93-2.63
		C130.69,80.49,131.23,81.77,131.58,83.27z"/>
	<path d="M243.61,161.11c0.56-11.85,1.58-21.63,5.44-30.91c0.59-1.42,0.95-3.17,2.96-2.34c1.74,0.73,0.75,2.31,0.32,3.39
		c-6.15,15.66-5.48,31.75-3.04,47.94c0.25,1.68,1.25,3.79-0.95,4.19c-2.12,0.38-2.25-2-2.45-3.63
		C245.03,172.9,244.21,166.06,243.61,161.11z"/>
	<path d="M228.66,110.55c5.91,0.83,10.82,3.01,15.46,5.88c0.99,0.61,2.06,1.37,1.46,2.65c-0.82,1.76-2.19,0.92-3.28,0.25
		c-4.34-2.67-8.95-4.56-14.01-5.36c-1.28-0.2-2.9-0.62-2.49-2.31C226.21,110.01,227.8,110.36,228.66,110.55z"/>
</g>
</svg>
