<?xml version="1.0" encoding="utf-8"?>
<!-- Generator: Adobe Illustrator 23.0.1, SVG Export Plug-In . SVG Version: 6.00 Build 0)  -->
<svg version="1.1" id="Layer_1" xmlns="http://www.w3.org/2000/svg" xmlns:xlink="http://www.w3.org/1999/xlink" x="0px" y="0px"
	 viewBox="0 0 283.5 283.5" style="enable-background:new 0 0 283.5 283.5;" xml:space="preserve">
<style type="text/css">
	.st0{fill:#FFFFFF;}
</style>
<g>
	<path class="st0" d="M23.1,142.1c-24.6,20.8-29.4,69.6-14.4,96c5.2,9.2,12.3,15.3,22.9,17.4c38.9,7.9,77.8,16,116.8,23.7
		c4.2,0.8,8.8,0.8,12.9,0c37.8-7.7,75.5-15.9,113.2-23.6c6.6-1.3,9.1-4.1,8.9-11c-0.4-15,0-15-14.3-17.4c-0.9-0.1-1.7-0.2-2.6-0.3
		c-2.4,3.4-5.3,6-8.6,6.5c-27.3,4.8-54.7,9.4-82.1,13.8c-12.3,2-17.7-1.1-22.3-12.8c-7.3-18.8-5.4-37.3,2.8-55.3
		c3.4-7.4,9.2-11.2,18-11.5c24.3-0.7,48.5-2.2,72.8-3.4c11.6-0.6,23.2-1.4,34.8-2.1c0-14.1,0-27.4,0-41c-36.3-1.8-72-3.4-107.6-5.7
		c-5.2-0.3-11.6-3.1-15-7c-12.5-14.5-13.8-50.4-2.3-65.6c3-3.9,9.9-7.7,14.4-7.1c28.9,4,57.7,9.1,86.5,14.1
		c3.3,0.6,6.3,3.1,11.7,5.9c13.8-1.2,13.4-1.2,13.7-17.3c0.2-7.1-2.5-9.4-9.1-10.8C237.1,20.1,200,12,162.8,4.4
		c-5-1-10.5-1.2-15.5-0.2c-37.5,7.5-74.9,15.9-112.5,22.9C19.6,30,10.3,38.3,5.7,51.9C-5.3,84.8-0.9,115,23.1,142.1z"/>
	<path d="M23.1,142.1C-0.9,115-5.3,84.8,5.7,51.9c4.5-13.6,13.9-21.8,29-24.7c37.6-7,75-15.4,112.5-22.9c5-1,10.5-0.9,15.5,0.2
		C200,12,237.1,20.1,274.3,27.7c6.6,1.3,9.2,3.7,9.1,10.8c-0.4,16.1,0,16.1-13.7,17.3c-5.4-2.8-8.4-5.4-11.7-5.9
		c-28.8-5-57.6-10.1-86.5-14.1c-4.5-0.6-11.4,3.2-14.4,7.1c-11.5,15.2-10.2,51.1,2.3,65.6c3.3,3.9,9.8,6.6,15,7
		c35.6,2.3,71.2,3.9,107.6,5.7c0,13.6,0,26.9,0,41c-11.6,0.7-23.2,1.5-34.8,2.1c-24.3,1.2-48.5,2.7-72.8,3.4
		c-8.8,0.3-14.6,4.1-18,11.5c-8.2,18-10.1,36.5-2.8,55.3c4.5,11.7,10,14.8,22.3,12.8c27.4-4.4,54.8-9,82.1-13.8
		c3.3-0.6,6.2-3.1,8.6-6.5c0.9,0.1,1.7,0.2,2.6,0.3c14.3,2.4,13.9,2.4,14.3,17.4c0.2,7-2.3,9.7-8.9,11
		c-37.8,7.7-75.5,15.8-113.2,23.6c-4.1,0.9-8.8,0.8-12.9,0c-39-7.8-77.9-15.9-116.8-23.7c-10.6-2.1-17.7-8.2-22.9-17.4
		C-6.3,211.7-1.5,163,23.1,142.1z"/>
</g>
</svg>
