<?xml version="1.0" encoding="utf-8"?>
<!-- Generator: Adobe Illustrator 23.0.1, SVG Export Plug-In . SVG Version: 6.00 Build 0)  -->
<svg version="1.1" id="Layer_1" xmlns="http://www.w3.org/2000/svg" xmlns:xlink="http://www.w3.org/1999/xlink" x="0px" y="0px"
	 viewBox="0 0 283.5 283.5" style="enable-background:new 0 0 283.5 283.5;" xml:space="preserve">
<g>
	<path d="M283.5,134.5c0,5,0,10,0,14.9c-0.5,4-0.9,8-1.4,12.1c-1.1,10.2-3.5,20.1-7,29.6c-4.6,12.6-10.9,24.5-18.9,35.4
		c-8.8,12-19.2,22.4-31.2,31.1c-10.5,7.6-21.9,13.9-34.2,18.2c-5.6,2-11.4,3.6-17.3,5.5c0-39.4,0-78.5,0-117.8c0.9,0,1.7,0,2.6,0
		c9.5,0,19-0.1,28.5,0.1c2.1,0,2.9-0.5,2.8-2.7c-0.1-11.2-0.1-22.3-0.1-33.5c0-3.2,0-3.2-3.2-3.2c-9.7,0-19.3,0-29,0
		c-1,0-2.2,0.3-2.2-1.4c0-7.8-0.3-15.5,2.7-23c3.6-8.9,9.9-14,19.5-14.7c5.8-0.4,11.4,0.1,17,1.6c0.8,0.2,1.7,0.3,2.5,0.5
		c0.2-0.5,0.3-0.7,0.3-0.9c0.7-12.8,1.4-25.6,2.1-38.4c0.1-1.4-0.6-1.9-1.8-2.1c-4.8-0.8-9.6-2-14.5-2.4
		c-13.3-1.3-26.5-0.6-39.2,4.2c-18.6,7-30.5,20.3-37,38.6c-3.7,10.4-5.3,21.3-5.2,32.4c0,1.8,0,3.6,0,5.6c-1.1,0-1.9,0-2.7,0
		c-5.7,0-11.5,0.1-17.2-0.1c-2.2-0.1-2.6,0.7-2.6,2.7c0.1,11.3,0.1,22.6,0,34c0,2.1,0.5,2.9,2.7,2.8c5.7-0.2,11.5-0.1,17.2-0.1
		c0.8,0,1.6,0,2.5,0c0,39.9,0,79.6,0,119.6c-6.4-1.5-12.8-2.7-18.8-4.6c-21.4-6.6-40.2-17.6-56.5-33C33.7,235.8,25,224.5,18,212
		c-8.2-14.6-13.7-30.1-16.2-46.7c-0.7-4.5-1.2-9.1-1.8-13.6c0-5.7,0-11.5,0-17.2c0.1-0.6,0.4-1.3,0.4-1.9c0.8-10.1,2.6-20,5.4-29.7
		C10.6,86.7,18,72,28,58.6c7.5-10,16.1-18.9,26-26.6c8.2-6.4,16.8-12,26.2-16.4c14.1-6.8,28.9-11.1,44.5-13C137.3,1,150,1.2,162.7,3
		c11.8,1.7,23.1,4.9,34.1,9.6c12.5,5.3,24.1,12.2,34.5,20.8c13.6,11.2,24.9,24.5,33.6,39.8c9,16,14.9,33.1,17.2,51.3
		C282.5,127.8,283,131.1,283.5,134.5z"/>
</g>
</svg>
