<?xml version="1.0" encoding="utf-8"?>
<!-- Generator: Adobe Illustrator 23.0.1, SVG Export Plug-In . SVG Version: 6.00 Build 0)  -->
<svg version="1.1" id="Layer_1" xmlns="http://www.w3.org/2000/svg" xmlns:xlink="http://www.w3.org/1999/xlink" x="0px" y="0px"
	 viewBox="0 0 283.5 283.5" style="enable-background:new 0 0 283.5 283.5;" xml:space="preserve">
<g>
	<path d="M99.3,115.4c4.2-3.1,8.5-5.9,12.4-9.3c4.1-3.5,9.5-3.5,14-6c2.5-1.3,10,6.1,9.7,9.6c-1.3,15.3-1.7,30.8-4.4,46
		c-1.3,7.4-1.4,15.3-0.7,22.8c0.5,5.8,7.4,7.8,10.4,12.4c0.3,0.4,2.5,0.2,2.7-0.2c2.8-6.1,11.3-8.1,10.2-17.4
		c-2.5-20.5-3.7-41.2-5.3-61.8c-0.7-8.8,4.5-11.8,12.9-9.8c9.2,2.3,15.7,7.9,22.6,13.5c9.9,11.7,15.6,24.8,15.5,40.4
		c-0.1,15.9-2.8,31.4-5.3,47c-3,18.3-6.7,36.4-10,54.6c-28.2,0-56.4,0-84.6-0.1c-3.9-22.4-9-44.7-11.8-67.3c-2.4-19-6.1-38,0.6-57
		C90.6,126,96.3,121.6,99.3,115.4z"/>
	<path d="M184,257.2c3.4-18.2,7.1-36.3,10-54.6c2.5-15.5,5.2-31.1,5.3-47c0.1-15.6-5.7-28.8-15.5-40.4c6.9-6.7,14.7-11.8,23.9-14.7
		c6-1.9,12.5,2.8,12,9.1c-1.1,15.2-2.4,30.4-4.1,45.5c-0.7,6.8-0.4,13.6-1.7,20.4c-1,5.2,4.6,7,7,10.6c3.3,4.9,5.8,4.4,9.8,0.2
		c4.9-5,7.1-9.6,6.5-17.2c-1.5-19.4-3.9-38.7-5.3-58.1c-0.6-7.9,5.6-12.7,13-10.3c24.9,8.3,41.4,35.6,38.3,61.7
		c-1.7,14.1-2.7,28.4-5.5,42.3c-3.3,16.2-5,32.7-9.3,48.8c-0.8,3-1.7,4-4.7,4C237.1,257.4,210.5,257.3,184,257.2z"/>
	<path d="M99.3,115.4c-3,6.3-8.6,10.7-11.1,17.5c-6.7,19-3,38-0.6,57c2.8,22.6,8,44.8,11.8,67.3c-26.7,0.1-53.4,0.2-80.2,0.4
		c-3.1,0-3.7-1.9-4.2-4.1c-2.6-12.5-5.3-25.1-7.5-37.7c-2.2-12.5-4.1-25.1-5.5-37.8c-1.4-12.7-3.8-25.5,0.1-38.2
		c2.3-7.5,4.7-15.5,10.6-20.4c8.2-6.9,14.7-16.3,26.2-19c6.5-1.5,13.5,2.8,12.9,9.5c-1.8,20.9-3.4,41.9-5.8,62.8
		c-0.9,8.2,4.9,11.8,8.6,17c1.1,1.5,3.2,1.6,4.7-0.2c0.4-0.5,0.8-0.9,1.3-1.3c10.5-10.2,10.1-10.1,7.9-27.8
		c-2-16.3-3.1-32.7-4.4-49.1c-0.6-7.1,6.4-12.8,12.8-10.5C85.4,104.1,93.3,108.2,99.3,115.4z"/>
	<path d="M225.8,92.6c-19.1-0.1-34.2-14.6-33.7-33.4c0.4-17.7,13.8-33,33.4-33.2c19-0.2,34.4,15.5,34,34.1
		C259,78.2,244,92.7,225.8,92.6z"/>
	<path d="M57.3,92.6c-16.1,1.1-33.4-14.3-33.2-34c0.2-17.2,16.7-33.2,34.6-32.7c18,0.5,33,16,32.6,34.3C91,78.5,76.1,92.7,57.3,92.6
		z"/>
	<path d="M173.9,61c2.4,16.7-17.2,32.2-32.4,32c-17.4-0.3-34.5-17.1-33-34.7c1.4-17.1,14-31.9,33.5-32.3c9.6-0.2,16.8,5.3,23.3,10.8
		C172.7,42.9,176.1,51.5,173.9,61z"/>
</g>
</svg>
