<?xml version="1.0" encoding="utf-8"?>
<!-- Generator: Adobe Illustrator 23.0.1, SVG Export Plug-In . SVG Version: 6.00 Build 0)  -->
<svg version="1.1" id="Layer_1" xmlns="http://www.w3.org/2000/svg" xmlns:xlink="http://www.w3.org/1999/xlink" x="0px" y="0px"
	 viewBox="0 0 283.5 283.5" style="enable-background:new 0 0 283.5 283.5;" xml:space="preserve">
<g>
	<path d="M258.5,60.2c0.2,0,0.3,0,0.5,0c0-6.5,0-13.1,0-19.6c0-1.3-0.1-2.2-1.7-2.4c-5.8-0.9-11.6-2.1-17.4-3
		c-15.4-2.4-30.7-5.4-45.6-10.3c-17.2-5.7-33.5-13.2-49.6-21.2c-2.1-1-3.8-1-5.8,0.1c-6.1,3.1-12.3,6.1-18.5,8.9
		c-17.8,8.2-36.2,15.1-55.5,18.8c-12,2.3-24.1,4.2-36.2,6.2c-4.2,0.7-4.4,0.6-4.2,4.8c0.7,17,1.5,33.9,2.3,50.9
		c0.6,14.9,2.3,29.7,6,44.2c5.2,20.2,11.4,40,21.9,58.3c8.1,13.9,16.9,27.3,27.5,39.4c10,11.4,21.5,21.2,33.5,30.3
		c7.1,5.4,15,9.6,22.7,14.2c1.1,0.7,3,1.1,4.1,0.7c3.4-1.3,6.6-3,9.8-4.7c10.6-5.7,19.6-13.5,28.7-21.2
		c23.7-19.9,41.4-44.4,54.4-72.2c11.6-24.7,18.2-50.8,20.5-78C257.3,89.7,257.7,75,258.5,60.2z"/>
	<path d="M258.5,60.2c-0.8,14.7-1.2,29.5-2.4,44.2c-2.3,27.1-8.9,53.3-20.5,78c-13.1,27.8-30.7,52.3-54.4,72.2
		c-9.1,7.7-18.1,15.5-28.7,21.2c-3.2,1.7-6.5,3.4-9.8,4.7c-1.1,0.4-3,0-4.1-0.7c-7.6-4.6-15.6-8.8-22.7-14.2
		c-12-9.1-23.5-19-33.5-30.3c-10.7-12.1-19.5-25.5-27.5-39.4c-10.5-18.2-16.8-38-21.9-58.3c-3.7-14.5-5.4-29.3-6-44.2
		c-0.7-17-1.6-33.9-2.3-50.9c-0.2-4.2,0-4.1,4.2-4.8c12.1-2,24.2-3.9,36.2-6.2c19.3-3.8,37.6-10.6,55.5-18.8
		c6.2-2.9,12.4-5.8,18.5-8.9c2.1-1,3.8-1.1,5.8-0.1c16.1,8.1,32.5,15.6,49.6,21.2c14.9,4.9,30.2,7.9,45.6,10.3
		c5.8,0.9,11.6,2,17.4,3c1.6,0.3,1.7,1.1,1.7,2.4c-0.1,6.5,0,13.1,0,19.6C258.8,60.2,258.6,60.2,258.5,60.2z"/>
</g>
</svg>
