<?xml version="1.0" encoding="utf-8"?>
<!-- Generator: Adobe Illustrator 23.0.1, SVG Export Plug-In . SVG Version: 6.00 Build 0)  -->
<svg version="1.1" id="Layer_1" xmlns="http://www.w3.org/2000/svg" xmlns:xlink="http://www.w3.org/1999/xlink" x="0px" y="0px"
	 viewBox="0 0 283.5 283.5" style="enable-background:new 0 0 283.5 283.5;" xml:space="preserve">
<style type="text/css">
	.st0{fill:#FFFFFF;}
</style>
<g>
	<path d="M141.7,229.5C80.2,226.6,34,199.3,4,145.2c-1.8-3.2-1.2-5.5,0.4-8.4C34.6,83.2,80.4,54,141.9,54
		c61.5,0,107.2,29.4,137.3,83c1.7,2.9,1.9,5.3,0.2,8.4C249.3,199.5,203,226.7,141.7,229.5z M142.4,68C102,67.4,68.7,100,68.3,140.6
		c-0.4,40.4,31.9,73.5,72.2,74c40.5,0.6,73.9-31.4,74.6-71.5C215.8,101.7,183.7,68.5,142.4,68z"/>
	<path class="st0" d="M142.4,68c41.3,0.6,73.3,33.7,72.7,75.2c-0.7,40.1-34.1,72.1-74.6,71.5c-40.3-0.6-72.6-33.7-72.2-74
		C68.7,100,102,67.4,142.4,68z M95.8,131.9c-5.9,14.5,2.6,36.9,18.3,48.1c17.7,12.7,41.9,11.7,58.5-2.6
		c16.6-14.2,21.4-37.9,11.7-57.4c-8.8-17.6-29.9-29.2-46.4-25.5c6.8,17.5,5.3,28.6-5.1,37.5C122.6,140.8,111.3,140.8,95.8,131.9z"/>
	<path d="M95.8,131.9c15.4,8.8,26.8,8.9,37,0.1c10.4-8.9,11.9-20,5.1-37.5c16.5-3.7,37.6,7.9,46.4,25.5c9.8,19.5,5,43.2-11.7,57.4
		c-16.7,14.3-40.8,15.3-58.5,2.6C98.4,168.8,89.9,146.4,95.8,131.9z"/>
</g>
</svg>
