<?xml version="1.0" encoding="utf-8"?>
<!-- Generator: Adobe Illustrator 23.0.1, SVG Export Plug-In . SVG Version: 6.00 Build 0)  -->
<svg version="1.1" id="Layer_1" xmlns="http://www.w3.org/2000/svg" xmlns:xlink="http://www.w3.org/1999/xlink" x="0px" y="0px"
	 viewBox="0 0 283.5 283.5" style="enable-background:new 0 0 283.5 283.5;" xml:space="preserve">
<g>
	<path d="M166,125.1c-0.2,8,0.6,17.9-0.3,27.8c-1.4,16.3-10.7,27.2-26.5,31.6c-9.4,2.6-19,2.5-28.3-0.3c-15.8-4.7-25-17.1-25.3-34.2
		c-0.3-18.4,0-36.7-0.1-55.1c0-1.9,0.6-2.4,2.4-2.4c5.7,0.1,11.4,0.1,17.1,0c2.3-0.1,3.1,0.5,3.1,3c-0.1,17.3-0.1,34.6-0.1,51.9
		c0,1.9,0.2,3.9,0.6,5.8c1.9,8.9,8.3,13.6,18.4,13.3c8.5-0.2,14.6-5.7,15.9-14.3c0.3-2.1,0.5-4.2,0.5-6.3c0-16.9,0-33.7-0.1-50.6
		c0-2,0.5-2.8,2.6-2.7c5.9,0.2,11.8,0.1,17.7,0c1.8,0,2.4,0.6,2.4,2.4C166,104.4,166,113.8,166,125.1z"/>
	<path d="M39.2,92.6c11.7,0,23.4,0,35,0c2.1,0,2.8,0.6,2.7,2.7c-0.1,4.5-0.2,9,0,13.4c0.1,2.2-0.8,2.7-2.7,2.6
		c-6.8-0.1-13.7,0-20.6,0c-3.4,0-3.4,0-3.4,3.5c0,22,0,43.9,0.1,65.9c0,2.7-0.7,3.4-3.3,3.3c-5.4-0.2-10.9-0.2-16.3,0
		c-2.4,0.1-2.9-0.8-2.9-3c0.1-22.1,0-44.3,0.1-66.4c0-2.6-0.6-3.5-3.4-3.4c-6.9,0.2-13.7,0-20.5,0.1c-2,0-2.8-0.4-2.8-2.6
		c0.1-4.5,0.1-9,0-13.4c-0.1-2.1,0.6-2.7,2.7-2.7C15.7,92.7,27.4,92.6,39.2,92.6z"/>
	<path d="M255.9,158c-7.9,0-15.8,0.1-23.7,0c-2.4,0-2.4,0.7-1.5,2.6c5.4,11.5,21.6,14.9,31.4,6.4c1.5-1.3,2.7-1.4,4.4-0.7
		c3.5,1.6,7.1,3.1,10.7,4.4c2,0.7,2,1.4,0.8,2.8c-5.4,6.3-12.4,9.9-20.3,11.9c-18.5,4.4-36.5-5.4-41.9-22.8
		c-5.9-18.8,5.1-38.7,24-43.4c19.3-4.8,38.2,7.2,42.1,26.6c0.7,3.3,0.5,6.6,0.5,10c0,1.9-0.8,2.4-2.6,2.4
		C271.8,157.9,263.8,158,255.9,158z M248.2,144.9c5.2,0,10.3-0.1,15.5,0c2,0,2.6-0.4,1.5-2.3c-4-6.5-9.7-10-17.4-9.8
		c-7.4,0.2-12.8,3.8-16.5,10c-0.9,1.4-0.9,2.1,1.2,2.1C237.6,144.8,242.9,144.9,248.2,144.9z"/>
	<path d="M217.6,85.5c1.9,0,3.9,0.1,5.8,0c2.1-0.1,2.4,0.5,1.6,2.4c-3.8,9-7.4,18-11.1,27c-11,26.9-22,53.7-32.9,80.6
		c-0.8,1.9-1.7,2.7-3.8,2.6c-3.6-0.2-7.2-0.1-10.8,0c-2.3,0.1-2.6-0.6-1.8-2.7c10.3-25,20.4-50,30.6-75c4.3-10.6,8.8-21.2,13-31.9
		c0.9-2.4,2.1-3.3,4.6-3C214.4,85.6,216,85.5,217.6,85.5z"/>
</g>
</svg>
