<?xml version="1.0" encoding="utf-8"?>
<!-- Generator: Adobe Illustrator 23.0.1, SVG Export Plug-In . SVG Version: 6.00 Build 0)  -->
<svg version="1.1" id="Layer_1" xmlns="http://www.w3.org/2000/svg" xmlns:xlink="http://www.w3.org/1999/xlink" x="0px" y="0px"
	 viewBox="0 0 283.46 283.46" style="enable-background:new 0 0 283.46 283.46;" xml:space="preserve">
<g>
	<path d="M0.45,265.35c3.71-7.8,7.28-15.67,11.15-23.39c7.83-15.61,15.82-31.15,23.75-46.71c6.05-11.87,12.11-23.74,18.17-35.61
		c6.3-12.34,12.6-24.68,18.91-37.02c6.13-12,12.29-23.99,18.41-35.99C97.24,74.1,103.61,61.54,110,49
		c6.77-13.29,13.45-26.61,20.36-39.83c2.22-4.24,5.93-6.98,10.8-7.68c3.15-0.45,5.85,0.9,8.4,2.65c3.67,2.52,5.24,6.5,7.15,10.22
		c8.31,16.21,16.59,32.44,24.86,48.67c9.4,18.45,18.77,36.92,28.17,55.36c7.94,15.57,15.92,31.1,23.86,46.67
		c9.51,18.64,18.97,37.31,28.48,55.95c6.12,12.01,12.34,23.97,18.42,36c1.35,2.67,2.29,5.55,3.41,8.33c0,1.81,0,3.62,0,5.43
		c-0.15,0.25-0.37,0.48-0.44,0.75c-1.9,7.05-7.2,11.63-15.58,11.62c-82.08-0.16-164.16-0.09-246.23-0.09
		c-2.41,0-4.83-0.01-7.24-0.01c-3.66,0.01-7.01-1.08-9.22-3.99c-1.91-2.51-3.19-5.5-4.76-8.28C0.45,268.97,0.45,267.16,0.45,265.35z
		 M142.18,47.06c-35.01,68.72-69.73,136.89-104.56,205.25c69.92,0,139.36,0,209.12,0C211.89,183.9,177.2,115.8,142.18,47.06z"/>
	<path d="M129.83,117.66c-0.22-3.91-0.49-7.82-0.64-11.74c-0.17-4.44,1.44-8.04,5.63-9.94c5.03-2.28,10.27-2.31,15.37-0.28
		c4.5,1.8,6.13,5.78,6.05,10.23c-0.13,7.83-0.66,15.66-1.07,23.48c-0.51,9.63-1.1,19.26-1.61,28.9
		c-0.53,10.01-1.17,20.02-1.47,30.04c-0.24,7.9-6.17,10.23-11.16,9.54c-3.95-0.55-6.56-3.37-6.94-7.76
		c-0.57-6.53-0.92-13.08-1.28-19.62c-0.97-17.61-1.9-35.22-2.84-52.84C129.85,117.66,129.84,117.66,129.83,117.66z"/>
	<path d="M142.17,242c-10.7,0.03-19.17-8.11-19.31-18.56c-0.14-10.2,8.69-18.99,19.22-19.13c10.34-0.14,19.32,8.61,19.43,18.93
		C161.62,233.62,153.02,241.97,142.17,242z"/>
</g>
</svg>
